<svg xmlns="http://www.w3.org/2000/svg" viewBox="0 0 128 128" role="img" aria-labelledby="title desc">
  <title id="title">GraiBot favicon</title>
  <desc id="desc">Stylized robotic face with glowing red eyes on a dark background.</desc>
  <defs>
    <radialGradient id="bg" cx="50%" cy="35%" r="75%">
      <stop offset="0" stop-color="#1c2430"/>
      <stop offset="1" stop-color="#07090f"/>
    </radialGradient>
    <linearGradient id="metal" x1="0" y1="0" x2="0" y2="1">
      <stop offset="0" stop-color="#c7cdd6"/>
      <stop offset="1" stop-color="#626c78"/>
    </linearGradient>
    <radialGradient id="eyeGlow" cx="50%" cy="50%" r="50%">
      <stop offset="0" stop-color="#ff5966"/>
      <stop offset="1" stop-color="#6f0010"/>
    </radialGradient>
  </defs>

  <rect width="128" height="128" rx="20" fill="url(#bg)"/>
  <path d="M21 40 31 20M107 40 97 20" stroke="#8d96a3" stroke-width="4" stroke-linecap="round"/>
  <circle cx="31" cy="20" r="4" fill="#ff9f43"/>
  <circle cx="97" cy="20" r="4" fill="#ff9f43"/>

  <path d="M64 15 96 32 104 62 90 96 64 112 38 96 24 62 32 32Z" fill="url(#metal)" stroke="#2a313c" stroke-width="3"/>
  <path d="M47 34h34l-6 13H53z" fill="#2f3642"/>
  <path d="M36 55c9-8 19-11 28-11s19 3 28 11l-6 13c-8-6-15-8-22-8s-14 2-22 8z" fill="#242b35"/>

  <path d="M39 67c7-4 14-6 21-6s14 2 21 6l-4 10c-6-3-11-4-17-4s-11 1-17 4z" fill="url(#eyeGlow)"/>

  <path d="M50 86h28l-3 17H53z" fill="#323a45" stroke="#1f252e" stroke-width="2"/>
  <circle cx="64" cy="95" r="7" fill="#1c232d"/>
  <g fill="#59616d">
    <circle cx="60" cy="91" r="1.2"/><circle cx="64" cy="91" r="1.2"/><circle cx="68" cy="91" r="1.2"/>
    <circle cx="60" cy="95" r="1.2"/><circle cx="64" cy="95" r="1.2"/><circle cx="68" cy="95" r="1.2"/>
    <circle cx="60" cy="99" r="1.2"/><circle cx="64" cy="99" r="1.2"/><circle cx="68" cy="99" r="1.2"/>
  </g>
</svg>
